# xmcd CD database file
#
# Track frame offsets:
#	150
#	19917
#	31797
#	44755
#	56100
#	65712
#	80125
#	91667
#	108920
#	123202
#
# Disc length: 1802 seconds
#
# Revision: 1
# Processed by: cddbd v1.5.2PL0 Copyright (c) Steve Scherf et al.
# Submitted via: CDex 1.51
#
DISCID=8307080a
DTITLE=Moe Bandy - No Regrets
DYEAR=1988
DGENRE=Country
TTITLE0=Americana
TTITLE1=Ashes In The Wind
TTITLE2=The Beauty Of Love
TTITLE3=Just Fine With Me
TTITLE4=No Regrets
TTITLE5=I Just Can't Say No To You
TTITLE6=What Goes Around
TTITLE7=The Champion
TTITLE8=Hittin' Close To Home
TTITLE9=Nobody Gets Off In This Town
EXTD=YEAR: 1988
EXTT0=
EXTT1=
EXTT2=
EXTT3=
EXTT4=
EXTT5=
EXTT6=
EXTT7=
EXTT8=
EXTT9=
PLAYORDER=
